# xmcd
#
# Track frame offsets: 
#        182
#        17807
#        42880
#
# Disc length: 833 seconds
#
# Revision: 4
# Processed by: cddbd v1.5.2PL0 Copyright (c) Steve Scherf et al.
# Submitted via: ExactAudioCopyFreeDBPlugin 1.0
#
DISCID=1b033f03
DTITLE=Flaming Lips / Yeah, I Know It's A Drag, But Wastin' Pigs Is St
DTITLE=ill Radical
DYEAR=1991
DGENRE=Rock
TTITLE0=Talkin' 'bout the Smiling Deathporn Immortality Blues (Everyon
TTITLE0=e Wants to Live Forever)
TTITLE1=All that Jazz / Happy Death Men
TTITLE2=Jets (Cupid's Kiss vs. the Psyche of Death)
EXTD=YEAR: 1991
EXTT0=
EXTT1=
EXTT2=
PLAYORDER=
